<?xml version="1.0" encoding="UTF-8" standalone="no"?>
<!DOCTYPE svg PUBLIC "-//W3C//DTD SVG 1.1//EN" "http://www.w3.org/Graphics/SVG/1.1/DTD/svg11.dtd">
<svg width="100%" height="100%" viewBox="0 0 2000 1000" version="1.1" xmlns="http://www.w3.org/2000/svg" xmlns:xlink="http://www.w3.org/1999/xlink" xml:space="preserve" xmlns:serif="http://www.serif.com/" style="fill-rule:evenodd;clip-rule:evenodd;stroke-linejoin:round;stroke-miterlimit:2;">
    <g>
        <g transform="matrix(2.425336,0,0,2.425336,-707.867771,-60.222928)">
            <g>
                <path d="M341.488,311.059L310.95,138.268L345.894,138.268L355.095,205.297C356.228,213.492 357.259,222.441 358.187,232.143C359.115,241.846 359.991,251.49 360.816,261.077C361.795,251.49 362.8,241.846 363.831,232.143C364.862,222.441 365.995,213.492 367.232,205.297L377.437,138.268L408.671,138.268L418.876,205.297C420.113,213.414 421.234,222.286 422.239,231.911C423.244,241.536 424.237,251.104 425.216,260.613C426.092,251.104 426.981,241.536 427.883,231.911C428.785,222.286 429.803,213.414 430.937,205.297L440.214,138.268L475.159,138.268L444.621,311.059L409.29,311.059L397.848,240.667C396.817,234.25 395.915,227.543 395.142,220.546C394.369,213.55 393.647,206.418 392.977,199.151C392.307,206.341 391.624,213.434 390.928,220.43C390.232,227.427 389.369,234.173 388.338,240.667L376.819,311.059L341.488,311.059Z" style="fill-rule:nonzero;"/>
                <path d="M524.994,313.378C514.531,313.378 505.06,309.976 496.582,303.173C488.103,296.369 481.39,286.377 476.442,273.195C471.494,260.014 469.02,243.875 469.02,224.779C469.02,205.529 471.494,189.293 476.442,176.073C481.39,162.853 488.103,152.861 496.582,146.096C505.06,139.331 514.531,135.949 524.994,135.949C535.456,135.949 544.914,139.331 553.367,146.096C561.82,152.861 568.533,162.853 573.506,176.073C578.48,189.293 580.967,205.529 580.967,224.779C580.967,243.952 578.48,260.13 573.506,273.311C568.533,286.493 561.82,296.466 553.367,303.231C544.914,309.996 535.456,313.378 524.994,313.378ZM524.994,272.558C532.776,272.558 538.691,268.46 542.737,260.265C546.782,252.07 548.805,240.241 548.805,224.779C548.805,209.24 546.782,197.353 542.737,189.119C538.691,180.886 532.776,176.769 524.994,176.769C517.262,176.769 511.361,180.886 507.289,189.119C503.218,197.353 501.182,209.24 501.182,224.779C501.182,240.241 503.218,252.07 507.289,260.265C511.361,268.46 517.262,272.558 524.994,272.558Z" style="fill-rule:nonzero;"/>
                <path d="M585.884,311.059L585.884,138.268L617.118,138.268L617.118,273.253L663.659,273.253L648.997,310.011L585.884,311.059Z" style="fill-rule:nonzero;"/>
                <g transform="matrix(1,0,0,1,2.094576,0)">
                    <path d="M667.494,311.059L667.494,138.268L767.367,138.268L747.313,176.073L698.727,176.073L698.727,215.038L739.379,215.038L723.406,251.25L698.727,251.915L698.727,311.059L667.494,311.059Z" style="fill-rule:nonzero;"/>
                </g>
                <path d="M806.468,313.378C795.284,313.378 785.452,309.802 776.974,302.651C768.496,295.5 761.885,285.314 757.144,272.094C752.402,258.873 750.031,243.179 750.031,225.011C750.031,205.993 752.569,189.854 757.646,176.595C762.723,163.336 769.513,153.247 778.018,146.328C786.522,139.408 795.954,135.949 806.314,135.949C815.385,135.949 823.58,138.481 830.899,143.545C838.217,148.608 844.183,155.605 848.796,164.534C853.409,173.464 856.102,183.727 856.875,195.324L825.332,195.324C824.353,189.371 822.265,184.79 819.07,181.582C815.874,178.373 811.828,176.769 806.932,176.769C799.098,176.769 793.016,180.944 788.687,189.293C784.357,197.643 782.193,209.317 782.193,224.315C782.193,239.468 784.267,251.297 788.416,259.801C792.565,268.305 798.686,272.558 806.777,272.558C813.735,272.558 818.993,270.354 822.549,265.947C826.105,261.541 827.961,255.549 828.115,247.973L807.241,247.973L807.241,214.574L858.267,214.574L858.267,238.463C858.267,254.235 856.05,267.706 851.618,278.878C847.185,290.049 841.065,298.592 833.257,304.506C825.448,310.421 816.519,313.378 806.468,313.378Z" style="fill:rgb(225,0,25);fill-rule:nonzero;"/>
                <path d="M863.57,311.059L863.57,138.268L913.204,138.268C921.76,138.268 929.246,140.607 935.663,145.284C942.08,149.961 947.079,156.687 950.661,165.462C954.243,174.237 956.034,184.732 956.034,196.947C956.034,208.93 954.295,219.097 950.816,227.446C947.337,235.796 942.531,242.174 936.397,246.581L959.9,311.059L925.883,311.059L905.628,254.003L894.804,254.003L894.804,311.059L863.57,311.059ZM894.804,217.589L905.782,217.589C911.297,217.589 915.614,216.004 918.732,212.835C921.85,209.665 923.409,204.369 923.409,196.947C923.409,189.603 921.85,184.249 918.732,180.886C915.614,177.523 911.297,175.841 905.782,175.841L894.804,175.841L894.804,217.589Z" style="fill:rgb(225,0,25);fill-rule:nonzero;"/>
                <rect x="961.415" y="138.268" width="31.234" height="172.791" style="fill:rgb(225,0,25);fill-rule:nonzero;"/>
                <path d="M1043.953,311.059L999.576,311.059L999.576,138.268L1043.489,138.268C1055.343,138.268 1065.574,141.728 1074.181,148.647C1082.789,155.566 1089.438,165.482 1094.128,178.393C1098.818,191.303 1101.163,206.766 1101.163,224.779C1101.163,242.715 1098.831,258.139 1094.166,271.05C1089.502,283.961 1082.892,293.857 1074.336,300.737C1065.78,307.618 1055.653,311.059 1043.953,311.059ZM1030.81,271.166L1042.716,271.166C1048.437,271.166 1053.32,269.813 1057.366,267.107C1061.412,264.401 1064.492,259.666 1066.605,252.901C1068.718,246.136 1069.775,236.762 1069.775,224.779C1069.775,212.719 1068.692,203.306 1066.528,196.541C1064.363,189.777 1061.206,185.022 1057.057,182.277C1052.908,179.533 1047.818,178.161 1041.788,178.161L1030.81,178.161L1030.81,271.166Z" style="fill:rgb(225,0,25);fill-rule:nonzero;"/>
            </g>
            <g>
                <path d="M341.488,311.059L310.95,138.268L345.894,138.268L355.095,205.297C356.228,213.492 357.259,222.441 358.187,232.143C359.115,241.846 359.991,251.49 360.816,261.077C361.795,251.49 362.8,241.846 363.831,232.143C364.862,222.441 365.995,213.492 367.232,205.297L377.437,138.268L408.671,138.268L418.876,205.297C420.113,213.414 421.234,222.286 422.239,231.911C423.244,241.536 424.237,251.104 425.216,260.613C426.092,251.104 426.981,241.536 427.883,231.911C428.785,222.286 429.803,213.414 430.937,205.297L440.214,138.268L475.159,138.268L444.621,311.059L409.29,311.059L397.848,240.667C396.817,234.25 395.915,227.543 395.142,220.546C394.369,213.55 393.647,206.418 392.977,199.151C392.307,206.341 391.624,213.434 390.928,220.43C390.232,227.427 389.369,234.173 388.338,240.667L376.819,311.059L341.488,311.059Z" style="fill-rule:nonzero;"/>
                <path d="M524.994,313.378C514.531,313.378 505.06,309.976 496.582,303.173C488.103,296.369 481.39,286.377 476.442,273.195C471.494,260.014 469.02,243.875 469.02,224.779C469.02,205.529 471.494,189.293 476.442,176.073C481.39,162.853 488.103,152.861 496.582,146.096C505.06,139.331 514.531,135.949 524.994,135.949C535.456,135.949 544.914,139.331 553.367,146.096C561.82,152.861 568.533,162.853 573.506,176.073C578.48,189.293 580.967,205.529 580.967,224.779C580.967,243.952 578.48,260.13 573.506,273.311C568.533,286.493 561.82,296.466 553.367,303.231C544.914,309.996 535.456,313.378 524.994,313.378ZM524.994,272.558C532.776,272.558 538.691,268.46 542.737,260.265C546.782,252.07 548.805,240.241 548.805,224.779C548.805,209.24 546.782,197.353 542.737,189.119C538.691,180.886 532.776,176.769 524.994,176.769C517.262,176.769 511.361,180.886 507.289,189.119C503.218,197.353 501.182,209.24 501.182,224.779C501.182,240.241 503.218,252.07 507.289,260.265C511.361,268.46 517.262,272.558 524.994,272.558Z" style="fill-rule:nonzero;"/>
                <path d="M585.884,311.059L585.884,138.268L617.118,138.268L617.118,273.253L663.659,273.253L648.997,310.011L585.884,311.059Z" style="fill-rule:nonzero;"/>
                <g transform="matrix(1,0,0,1,2.094576,0)">
                    <path d="M667.494,311.059L667.494,138.268L767.367,138.268L747.313,176.073L698.727,176.073L698.727,215.038L739.379,215.038L723.406,251.25L698.727,251.915L698.727,311.059L667.494,311.059Z" style="fill-rule:nonzero;"/>
                </g>
                <path d="M806.468,313.378C795.284,313.378 785.452,309.802 776.974,302.651C768.496,295.5 761.885,285.314 757.144,272.094C752.402,258.873 750.031,243.179 750.031,225.011C750.031,205.993 752.569,189.854 757.646,176.595C762.723,163.336 769.513,153.247 778.018,146.328C786.522,139.408 795.954,135.949 806.314,135.949C815.385,135.949 823.58,138.481 830.899,143.545C838.217,148.608 844.183,155.605 848.796,164.534C853.409,173.464 856.102,183.727 856.875,195.324L825.332,195.324C824.353,189.371 822.265,184.79 819.07,181.582C815.874,178.373 811.828,176.769 806.932,176.769C799.098,176.769 793.016,180.944 788.687,189.293C784.357,197.643 782.193,209.317 782.193,224.315C782.193,239.468 784.267,251.297 788.416,259.801C792.565,268.305 798.686,272.558 806.777,272.558C813.735,272.558 818.993,270.354 822.549,265.947C826.105,261.541 827.961,255.549 828.115,247.973L807.241,247.973L807.241,214.574L858.267,214.574L858.267,238.463C858.267,254.235 856.05,267.706 851.618,278.878C847.185,290.049 841.065,298.592 833.257,304.506C825.448,310.421 816.519,313.378 806.468,313.378Z" style="fill:rgb(225,0,25);fill-rule:nonzero;"/>
                <path d="M863.57,311.059L863.57,138.268L913.204,138.268C921.76,138.268 929.246,140.607 935.663,145.284C942.08,149.961 947.079,156.687 950.661,165.462C954.243,174.237 956.034,184.732 956.034,196.947C956.034,208.93 954.295,219.097 950.816,227.446C947.337,235.796 942.531,242.174 936.397,246.581L959.9,311.059L925.883,311.059L905.628,254.003L894.804,254.003L894.804,311.059L863.57,311.059ZM894.804,217.589L905.782,217.589C911.297,217.589 915.614,216.004 918.732,212.835C921.85,209.665 923.409,204.369 923.409,196.947C923.409,189.603 921.85,184.249 918.732,180.886C915.614,177.523 911.297,175.841 905.782,175.841L894.804,175.841L894.804,217.589Z" style="fill:rgb(225,0,25);fill-rule:nonzero;"/>
                <rect x="961.415" y="138.268" width="31.234" height="172.791" style="fill:rgb(225,0,25);fill-rule:nonzero;"/>
                <path d="M1043.953,311.059L999.576,311.059L999.576,138.268L1043.489,138.268C1055.343,138.268 1065.574,141.728 1074.181,148.647C1082.789,155.566 1089.438,165.482 1094.128,178.393C1098.818,191.303 1101.163,206.766 1101.163,224.779C1101.163,242.715 1098.831,258.139 1094.166,271.05C1089.502,283.961 1082.892,293.857 1074.336,300.737C1065.78,307.618 1055.653,311.059 1043.953,311.059ZM1030.81,271.166L1042.716,271.166C1048.437,271.166 1053.32,269.813 1057.366,267.107C1061.412,264.401 1064.492,259.666 1066.605,252.901C1068.718,246.136 1069.775,236.762 1069.775,224.779C1069.775,212.719 1068.692,203.306 1066.528,196.541C1064.363,189.777 1061.206,185.022 1057.057,182.277C1052.908,179.533 1047.818,178.161 1041.788,178.161L1030.81,178.161L1030.81,271.166Z" style="fill:rgb(225,0,25);fill-rule:nonzero;"/>
            </g>
        </g>
    </g>
</svg>
