<?xml version="1.0" encoding="UTF-8" standalone="no"?>
<!DOCTYPE svg PUBLIC "-//W3C//DTD SVG 1.1//EN" "http://www.w3.org/Graphics/SVG/1.1/DTD/svg11.dtd">
<svg width="100%" height="100%" viewBox="0 0 1900 250" version="1.1" xmlns="http://www.w3.org/2000/svg" xmlns:xlink="http://www.w3.org/1999/xlink" xml:space="preserve" xmlns:serif="http://www.serif.com/" style="fill-rule:evenodd;clip-rule:evenodd;stroke-linejoin:round;stroke-miterlimit:2;">
    <g transform="matrix(1.015382,0,0,1.015382,-85.581269,-347.580684)">
        <g transform="matrix(2.318609,0,0,1.352154,-631.854483,161.072401)">
            <path d="M341.488,311.059L318.735,138.268L344.2,138.268L360.816,261.077L379.731,138.268L406.928,138.268L425.216,260.613L441.909,138.268L465.56,138.268L444.621,311.059L409.29,311.059L393.836,197.806L376.819,311.059L341.488,311.059Z"/>
        </g>
        <g transform="matrix(2.318609,0,0,1.352154,-646.894558,161.395866)">
            <path d="M556.133,310.819L495.574,310.819L483.335,285.293L482.899,156.578L495.765,138.029L556.314,138.029L571.818,156.578L571.818,284.887L556.133,310.819ZM505.11,251.275L513.271,275.576L543.499,275.576L551.383,251.15L551.237,176.627L542.259,163.814L540.514,185.714L516.443,185.515L513.788,163.814L505.247,176.805L505.11,251.275Z"/>
        </g>
        <g transform="matrix(2.318609,0,0,1.352154,-641.816419,161.072401)">
            <path d="M585.884,311.059L585.884,138.268L617.118,138.268L617.118,273.253L663.659,273.253L650.74,311.059L585.884,311.059Z"/>
        </g>
        <g transform="matrix(2.318609,0,0,1.358748,-636.019654,160.160697)">
            <path d="M667.494,311.059L667.494,138.268L747.936,138.268L734.43,176.073L698.727,176.073L698.727,215.038L723.973,215.785L710.771,251.997L698.727,251.915L698.727,311.059L667.494,311.059Z"/>
        </g>
        <g transform="matrix(2.318609,0,0,1.352154,-671.251383,161.072401)">
            <path d="M845.039,311.901L776.201,311.901L763.159,275.825L763.238,176.007L776.218,138.268L845.047,139.111L858.267,175.26L858.267,195.324L840.063,195.324L839.816,185.167L835.13,175.26L784.662,175.26L785.444,269.97L836.224,269.97L839.735,262.586L839.716,237.217L807.241,237.217L807.241,214.574L858.267,214.574L858.267,238.463L858.063,276.117L845.039,311.901Z" style="fill:rgb(225,0,25);"/>
        </g>
        <g transform="matrix(2.318609,0,0,1.352154,-652.735988,162.211738)">
            <path d="M863.57,311.059L863.57,138.268L937.694,138.268L954.582,165.462L954.737,223.413L936.397,252.558L959.9,311.059L925.883,311.059L906.063,258.485L895.24,258.485L894.804,311.059L863.57,311.059ZM886.211,224.565L927.265,224.565L935.549,212.462L935.549,188.193L926.405,175.444L886.211,175.444L886.211,224.565Z" style="fill:rgb(225,0,25);"/>
        </g>
        <g transform="matrix(2.318609,0,0,1.352154,-625.328151,162.211738)">
            <rect x="961.415" y="138.268" width="31.234" height="172.791" style="fill:rgb(225,0,25);"/>
        </g>
        <g transform="matrix(2.318609,0,0,1.352154,-604.325877,161.072401)">
            <path d="M1079.632,310.311L999.576,311.059L999.576,138.268L1074.466,138.268L1093.698,171.221L1094.166,277.027L1079.632,310.311ZM1026.513,273.482L1065.058,273.482L1072.166,252.901L1072.089,196.541L1060.693,176.816L1026.513,176.144L1026.513,273.482Z" style="fill:rgb(225,0,25);"/>
        </g>
    </g>
</svg>
