<svg xmlns="http://www.w3.org/2000/svg" xmlns:xlink="http://www.w3.org/1999/xlink" width="1900" zoomAndPan="magnify" viewBox="0 0 1425 675.000002" height="900" preserveAspectRatio="xMidYMid meet" version="1.0"><defs><g/></defs><g fill="#ffffff" fill-opacity="1"><g transform="translate(8.475614, 551.552493)"><g><path d="M 25.734375 0 L 25.734375 -416.84375 L 323.40625 -416.84375 L 323.40625 -323.96875 L 139.59375 -323.96875 L 139.59375 -234.4375 L 307.171875 -234.4375 L 307.171875 -144.359375 L 139.59375 -144.359375 L 139.59375 0 Z M 25.734375 0 "/></g></g><g transform="translate(345.869229, 551.552493)"><g><path d="M 25.734375 0 L 25.734375 -416.84375 L 139.59375 -416.84375 L 139.59375 -92.875 L 310.53125 -92.875 L 310.53125 0 Z M 25.734375 0 "/></g></g></g><g fill="#ffffff" fill-opacity="1"><g transform="translate(595.4174, 551.552493)"><g><path d="M 165.34375 0 L 165.34375 -144.359375 L 10.078125 -416.84375 L 142.953125 -416.84375 L 203.109375 -292.90625 C 208.328125 -281.90625 213.128906 -270.671875 217.515625 -259.203125 C 221.898438 -247.734375 226.328125 -234.910156 230.796875 -220.734375 L 214.296875 -220.734375 C 218.398438 -234.910156 222.410156 -247.734375 226.328125 -259.203125 C 230.242188 -270.671875 234.8125 -281.90625 240.03125 -292.90625 L 296.265625 -416.84375 L 428.59375 -416.84375 L 277.796875 -144.359375 L 277.796875 0 Z M 165.34375 0 "/></g></g></g><g fill="#ffffff" fill-opacity="1"><g transform="translate(1034.085083, 551.552493)"><g><path d="M 25.734375 0 L 25.734375 -416.84375 L 204.78125 -416.84375 C 236.300781 -416.84375 263.8125 -411.15625 287.3125 -399.78125 C 310.8125 -388.40625 329.039062 -372.039062 342 -350.6875 C 354.96875 -329.332031 361.453125 -303.921875 361.453125 -274.453125 C 361.453125 -244.796875 354.785156 -219.660156 341.453125 -199.046875 C 328.117188 -178.441406 309.375 -162.773438 285.21875 -152.046875 C 261.0625 -141.328125 232.851562 -135.96875 200.59375 -135.96875 L 94.84375 -135.96875 L 94.84375 -224.375 L 182.125 -224.375 C 195.175781 -224.375 206.316406 -226.144531 215.546875 -229.6875 C 224.785156 -233.226562 231.921875 -238.679688 236.953125 -246.046875 C 241.992188 -253.410156 244.515625 -262.878906 244.515625 -274.453125 C 244.515625 -286.015625 241.992188 -295.523438 236.953125 -302.984375 C 231.921875 -310.441406 224.785156 -316.035156 215.546875 -319.765625 C 206.316406 -323.492188 195.175781 -325.359375 182.125 -325.359375 L 139.59375 -325.359375 L 139.59375 0 Z M 252.625 0 L 153.3125 -190.796875 L 273.046875 -190.796875 L 375.15625 0 Z M 252.625 0 "/></g></g></g></svg>
