<?xml version="1.0" encoding="UTF-8" standalone="no"?><!DOCTYPE svg PUBLIC "-//W3C//DTD SVG 1.1//EN" "http://www.w3.org/Graphics/SVG/1.1/DTD/svg11.dtd"><svg width="100%" height="100%" viewBox="0 0 8334 4167" version="1.1" xmlns="http://www.w3.org/2000/svg" xmlns:xlink="http://www.w3.org/1999/xlink" xml:space="preserve" xmlns:serif="http://www.serif.com/" style="fill-rule:evenodd;clip-rule:evenodd;stroke-linejoin:round;stroke-miterlimit:2;"><g><g><path d="M5256.246,2945.1c-115.011,0 -216.119,-36.774 -303.303,-110.312c-87.184,-73.538 -155.169,-178.286 -203.923,-314.235c-48.765,-135.959 -73.147,-297.349 -73.147,-484.181c0,-195.573 26.1,-361.539 78.309,-497.889c52.21,-136.35 122.035,-240.101 209.497,-311.253c87.451,-71.162 184.446,-106.733 290.984,-106.733c93.282,0 177.556,26.038 252.821,78.114c75.255,52.066 136.607,124.02 184.045,215.842c47.438,91.832 75.132,197.372 83.081,316.631l-324.374,0c-10.068,-61.218 -31.54,-108.327 -64.396,-141.317c-32.866,-33 -74.474,-49.495 -124.822,-49.495c-80.561,0 -143.106,42.934 -187.624,128.791c-44.528,85.868 -66.781,205.918 -66.781,360.151c0,155.827 21.328,277.471 63.995,364.922c42.667,87.451 105.612,131.187 188.816,131.187c71.553,0 125.624,-22.665 162.192,-67.985c36.568,-45.309 55.655,-106.928 57.238,-184.837l-214.659,0l0,-343.461l524.729,0l0,245.664c0,162.192 -22.799,300.722 -68.375,415.61c-45.587,114.878 -108.522,202.73 -188.816,263.547c-80.304,60.827 -172.126,91.236 -275.486,91.236Z" style="fill:#e10019;fill-rule:nonzero;"/><path d="M5843.458,2921.252l0,-1776.907l510.414,0c87.986,0 164.969,24.053 230.959,72.149c65.99,48.096 117.397,117.263 154.233,207.502c36.836,90.238 55.254,198.164 55.254,323.778c0,123.228 -17.883,227.781 -53.66,313.638c-35.777,85.868 -85.199,151.456 -148.279,196.776l241.695,663.064l-349.816,0l-208.294,-586.739l-111.309,0l0,586.739l-321.197,0Zm321.197,-961.205l112.893,0c56.714,0 101.108,-16.299 133.172,-48.888c32.064,-32.599 48.096,-87.061 48.096,-163.385c0,-75.522 -16.032,-130.581 -48.096,-165.164c-32.064,-34.584 -76.458,-51.881 -133.172,-51.881l-112.893,0l0,429.318Z" style="fill:#e10019;fill-rule:nonzero;"/><rect x="6849.653" y="1144.345" width="321.197" height="1776.907" style="fill:#e10019;"/><path d="M7698.438,2921.252l-456.354,0l0,-1776.907l451.582,0c121.901,0 227.112,35.581 315.623,106.733c88.521,71.152 156.896,173.124 205.126,305.895c48.23,132.761 72.345,291.776 72.345,477.013c0,184.446 -23.981,343.06 -71.954,475.831c-47.963,132.771 -115.937,234.537 -203.923,305.288c-87.986,70.761 -192.128,106.147 -312.445,106.147Zm-135.157,-410.242l122.436,0c58.832,0 109.047,-13.914 150.654,-41.741c41.607,-27.827 73.281,-76.52 95.01,-146.088c21.729,-69.568 32.599,-165.966 32.599,-289.194c0,-124.02 -11.137,-220.819 -33.391,-290.387c-22.264,-69.558 -54.729,-118.456 -97.396,-146.685c-42.667,-28.218 -95.01,-42.327 -157.02,-42.327l-112.893,0l0,956.423Z" style="fill:#e10019;fill-rule:nonzero;"/></g></g><g><path d="M501.481,2892.499l-308.604,-1746.151l353.129,0l92.981,677.366c11.45,82.815 21.868,173.25 31.246,271.294c9.378,98.054 18.23,195.512 26.568,292.394c9.893,-96.882 20.049,-194.34 30.468,-292.394c10.419,-98.044 21.868,-188.479 34.369,-271.294l103.127,-677.366l315.637,0l103.127,677.366c12.501,82.027 23.829,171.683 33.985,268.95c10.156,97.266 20.191,193.956 30.084,290.05c8.852,-96.094 17.836,-192.784 26.952,-290.05c9.115,-97.266 19.403,-186.923 30.862,-268.95l93.749,-677.366l353.139,0l-308.604,1746.151l-357.04,0l-115.628,-711.351c-10.419,-64.847 -19.534,-132.625 -27.346,-203.334c-7.812,-70.699 -15.108,-142.771 -21.879,-216.209c-6.771,72.659 -13.673,144.338 -20.706,215.036c-7.033,70.709 -15.755,138.881 -26.173,204.506l-116.406,711.351l-357.04,0Z" style="fill-rule:nonzero;"/><path d="M2355.913,2915.933c-105.735,0 -201.444,-34.379 -287.119,-103.127c-85.685,-68.758 -153.524,-169.733 -203.526,-302.945c-50.002,-133.201 -75.004,-296.295 -75.004,-489.271c0,-194.532 25.001,-358.606 75.004,-492.202c50.002,-133.596 117.841,-234.57 203.526,-302.935c85.675,-68.364 181.385,-102.541 287.119,-102.541c105.724,0 201.303,34.177 286.725,102.541c85.422,68.364 153.261,169.339 203.516,302.935c50.265,133.596 75.398,297.67 75.398,492.202c0,193.754 -25.133,357.242 -75.398,490.443c-50.255,133.212 -118.094,233.994 -203.516,302.359c-85.422,68.364 -181.001,102.541 -286.725,102.541Zm0,-412.509c78.642,0 138.416,-41.413 179.303,-124.228c40.877,-82.815 61.321,-202.354 61.321,-358.606c0,-157.03 -20.444,-277.155 -61.321,-360.365c-40.887,-83.199 -100.662,-124.804 -179.303,-124.804c-78.136,0 -137.769,41.605 -178.919,124.804c-41.14,83.209 -61.715,203.334 -61.715,360.365c0,156.252 20.575,275.791 61.715,358.606c41.15,82.815 100.783,124.228 178.919,124.228Z" style="fill-rule:nonzero;"/><path d="M2971.241,2892.499l0,-1746.151l315.637,0l0,1364.1l470.323,0l-148.168,371.46l-637.793,10.591Z" style="fill-rule:nonzero;"/><path d="M3817.123,2892.499l0,-1746.151l1038.44,0l-173.49,377.874l-549.322,4.167l0,393.763l473.311,0l-144.75,365.943l-328.562,6.72l0,597.684l-315.627,0Z"/></g></svg>