<svg xmlns="http://www.w3.org/2000/svg" xmlns:xlink="http://www.w3.org/1999/xlink" width="1024" zoomAndPan="magnify" viewBox="0 0 768 767.999994" height="1024" preserveAspectRatio="xMidYMid meet" version="1.0"><defs><g/></defs><g fill="#000000" fill-opacity="1"><g transform="translate(33.805665, 447.409627)"><g><path d="M 0.140625 0 L 34.515625 -207.34375 L 182.578125 -207.34375 L 174.78125 -161.140625 L 83.359375 -161.140625 L 75.984375 -116.609375 L 159.34375 -116.609375 L 151.828125 -71.8125 L 68.609375 -71.8125 L 56.640625 0 Z M 0.140625 0 "/></g></g><g transform="translate(201.628385, 447.409627)"><g><path d="M 0.140625 0 L 34.515625 -207.34375 L 91.015625 -207.34375 L 64.296875 -46.203125 L 149.3125 -46.203125 L 141.671875 0 Z M 0.140625 0 "/></g></g></g><g fill="#000000" fill-opacity="1"><g transform="translate(325.755969, 447.409627)"><g><path d="M 69.4375 0 L 81.265625 -71.8125 L 26.578125 -207.34375 L 90.453125 -207.34375 L 110.078125 -145.703125 C 111.929688 -140.222656 113.4375 -134.628906 114.59375 -128.921875 C 115.757812 -123.222656 116.851562 -116.847656 117.875 -109.796875 L 109.65625 -109.796875 C 112.8125 -116.847656 115.894531 -123.222656 118.90625 -128.921875 C 121.925781 -134.628906 125.101562 -140.222656 128.4375 -145.703125 L 166.71875 -207.34375 L 234.765625 -207.34375 L 137.21875 -71.8125 L 125.390625 0 Z M 69.4375 0 "/></g></g></g><g fill="#000000" fill-opacity="1"><g transform="translate(543.953315, 447.409627)"><g><path d="M 0.140625 0 L 34.515625 -207.34375 L 123.578125 -207.34375 C 139.160156 -207.34375 152.304688 -204.515625 163.015625 -198.859375 C 173.734375 -193.203125 181.457031 -185.0625 186.1875 -174.4375 C 190.925781 -163.8125 192.085938 -151.171875 189.671875 -136.515625 C 187.265625 -121.765625 181.882812 -109.265625 173.53125 -99.015625 C 165.1875 -88.765625 154.539062 -80.96875 141.59375 -75.625 C 128.65625 -70.289062 114.160156 -67.625 98.109375 -67.625 L 45.640625 -67.625 L 52.875 -111.609375 L 96.296875 -111.609375 C 102.796875 -111.609375 108.503906 -112.488281 113.421875 -114.25 C 118.335938 -116.007812 122.347656 -118.722656 125.453125 -122.390625 C 128.554688 -126.054688 130.53125 -130.765625 131.375 -136.515625 C 132.851562 -145.046875 131.179688 -151.398438 126.359375 -155.578125 C 121.535156 -159.753906 114.300781 -161.84375 104.65625 -161.84375 L 83.5 -161.84375 L 56.640625 0 Z M 113.140625 0 L 79.328125 -94.90625 L 138.75 -94.90625 L 173.8125 0 Z M 113.140625 0 "/></g></g></g></svg>
